<?xml version="1.0" encoding="UTF-8" standalone="no"?>
<!-- Created with Inkscape (http://www.inkscape.org/) -->

<svg
   width="115.72881mm"
   height="130.42372mm"
   viewBox="0 0 115.72881 130.42372"
   version="1.1"
   id="svg1"
   inkscape:version="1.4.2 (ebf0e94, 2025-05-08)"
   sodipodi:docname="checklist.svg"
   xmlns:inkscape="http://www.inkscape.org/namespaces/inkscape"
   xmlns:sodipodi="http://sodipodi.sourceforge.net/DTD/sodipodi-0.dtd"
   xmlns="http://www.w3.org/2000/svg"
   xmlns:svg="http://www.w3.org/2000/svg">
  <sodipodi:namedview
     id="namedview1"
     pagecolor="#ffffff"
     bordercolor="#000000"
     borderopacity="0.25"
     inkscape:showpageshadow="2"
     inkscape:pageopacity="0.0"
     inkscape:pagecheckerboard="0"
     inkscape:deskcolor="#d1d1d1"
     inkscape:document-units="mm"
     inkscape:zoom="0.28908179"
     inkscape:cx="-65.725344"
     inkscape:cy="25.944215"
     inkscape:window-width="1600"
     inkscape:window-height="816"
     inkscape:window-x="0"
     inkscape:window-y="0"
     inkscape:window-maximized="1"
     inkscape:current-layer="layer1" />
  <defs
     id="defs1" />
  <g
     inkscape:label="Layer 1"
     inkscape:groupmode="layer"
     id="layer1"
     transform="translate(-94.271186)">
    <path
       d="M 192.57683,46.586441 V 28.734556 c 0,-3.177509 -2.59999,-5.777298 -5.77757,-5.777298 H 168.94755 L 156.17977,10.189403 c -0.5347,-0.5355787 -1.16938,-0.9604837 -1.86839,-1.2503974 -0.69904,-0.2899152 -1.44823,-0.4391426 -2.20472,-0.4391426 -0.75647,0 -1.50605,0.1492274 -2.20469,0.4391426 -0.69902,0.2899137 -1.3337,0.7148187 -1.86839,1.2503974 l -12.7678,12.767855 H 117.4139 c -3.1775,0 -5.77729,2.599789 -5.77729,5.777298 V 46.586441 L 98.868738,59.354232 c -0.53557,0.534704 -0.96047,1.169379 -1.2504,1.868402 -0.2899,0.69864 -0.43913,1.448221 -0.43913,2.204697 0,0.756476 0.14923,1.505675 0.43913,2.204699 0.28993,0.699023 0.71483,1.333696 1.2504,1.8684 l 12.767872,12.767791 v 17.85169 c 0,3.177599 2.59979,5.777579 5.77729,5.777579 h 17.85188 l 12.7678,12.76779 c 1.15558,1.15559 2.59998,1.67536 4.10182,1.67536 1.50222,0 2.94662,-0.57762 4.10221,-1.67536 l 12.76779,-12.76779 h 17.85169 c 3.17759,0 5.77757,-2.59998 5.77757,-5.777579 V 80.268221 L 205.40245,67.50043 c 0.53548,-0.534704 0.96025,-1.169377 1.2502,-1.8684 0.28995,-0.699024 0.43933,-1.448223 0.43933,-2.204699 0,-0.756476 -0.14938,-1.506057 -0.43933,-2.204697 -0.28995,-0.699023 -0.71472,-1.333698 -1.2502,-1.868402 L 192.63466,46.586441 Z m -46.21861,36.570563 -15.6565,-15.656574 8.14612,-8.146198 7.45255,7.452922 19.00728,-19.007286 8.1462,8.145815 -27.21133,27.211321 z"
       fill="#27ae60"
       id="path1"
       style="stroke-width:0.383026" />
  </g>
</svg>
