<?xml version="1.0" encoding="UTF-8" standalone="no"?>
<svg
   viewBox="0 0 24 24"
   version="1.1"
   id="svg3"
   sodipodi:docname="transaksi.svg"
   inkscape:version="1.4.2 (ebf0e94, 2025-05-08)"
   xml:space="preserve"
   xmlns:inkscape="http://www.inkscape.org/namespaces/inkscape"
   xmlns:sodipodi="http://sodipodi.sourceforge.net/DTD/sodipodi-0.dtd"
   xmlns="http://www.w3.org/2000/svg"
   xmlns:svg="http://www.w3.org/2000/svg"><defs
     id="defs3"><mask
       id="SVGuiyM6d6v"><g
         fill="none"
         stroke="#fff"
         stroke-linecap="round"
         stroke-linejoin="round"
         stroke-width="4"
         id="g2"><path
           fill="#555"
           d="M39 6H9a3 3 0 0 0-3 3v30a3 3 0 0 0 3 3h30a3 3 0 0 0 3-3V9a3 3 0 0 0-3-3"
           id="path1-3" /><path
           d="m21 31l5 4l8-10M14 15h20m-20 8h8"
           id="path2" /></g></mask></defs><sodipodi:namedview
     id="namedview3"
     pagecolor="#000000"
     bordercolor="#000000"
     borderopacity="0.25"
     inkscape:showpageshadow="2"
     inkscape:pageopacity="0.0"
     inkscape:pagecheckerboard="0"
     inkscape:deskcolor="#d1d1d1"
     inkscape:zoom="13.520833"
     inkscape:cx="16.604006"
     inkscape:cy="8.0986132"
     inkscape:window-width="1600"
     inkscape:window-height="816"
     inkscape:window-x="0"
     inkscape:window-y="0"
     inkscape:window-maximized="1"
     inkscape:current-layer="g3" /><g
     fill="none"
     id="g3"
     style="stroke:#ffffff;stroke-opacity:1"><path
       fill="currentColor"
       d="M 0,0 H 48 V 48 H 0 Z"
       mask="url(#SVGuiyM6d6v)"
       id="path3"
       transform="matrix(0.56906714,0,0,0.56906714,-33.454536,-1.1346356)"
       style="fill:#ffffff;fill-opacity:1" /><g
       id="g4"
       transform="matrix(1.078449,0,0,1.078449,-0.89043459,-0.03898368)"><rect
         style="fill:none;fill-opacity:1;stroke:#ffffff;stroke-width:1.38506;stroke-linecap:square;stroke-dasharray:none;stroke-opacity:1;paint-order:stroke fill markers"
         id="rect1"
         width="19.360071"
         height="18.78059"
         x="2.2727175"
         y="1.7729437"
         ry="1.4487013" /><rect
         style="fill:none;fill-opacity:1;stroke:#ffffff;stroke-width:1.35341;stroke-linecap:square;stroke-dasharray:none;stroke-opacity:1;paint-order:stroke fill markers"
         id="rect2"
         width="11.663897"
         height="0.37432265"
         x="6.1208043"
         y="5.7475128"
         ry="0.03311719" /><path
         style="fill:none;fill-opacity:1;stroke:#ffffff;stroke-width:1.38506;stroke-linecap:square;stroke-dasharray:none;stroke-opacity:1;paint-order:stroke fill markers"
         d="m 7.6674027,14.516507 2.7829163,2.714625 6.31705,-5.463395"
         id="path4"
         sodipodi:nodetypes="ccc" /><rect
         style="fill:none;fill-opacity:1;stroke:#ffffff;stroke-width:1.01104;stroke-linecap:square;stroke-dasharray:none;stroke-opacity:1;paint-order:stroke fill markers"
         id="rect4"
         width="4.1108484"
         height="0.59269744"
         x="5.9496174"
         y="9.367095"
         ry="0.052437305" /></g></g></svg>
